<svg width="38" height="53" viewBox="0 0 38 53" fill="none" xmlns="http://www.w3.org/2000/svg">
<path d="M12 40.5L17 44.7857M25 40.5L20.7143 44.7857M17 44.7857L19 46.5L20.7143 44.7857M17 44.7857V29M20.7143 44.7857V34.5M9 32.5C9 28.5 10 27.5 11 25.5C12 23.5 13 22 13 19.5M28 12.5C28 12.5 28 12.5 28 12M20 9.5V7.5M25 5.5V5M15 2.5V2M26 24.9231C26 24.9231 26 24.9231 26 24.4231M30 32C30 32 30 32 30 31.5M36 35C36 44.1114 28.3874 51.5 19 51.5C9.6126 51.5 2 44.1114 2 35C2 20.3345 10.5 22.1655 10.5 7.5C21.8322 14.8345 19 24.4231 19 24.4231C19 24.4231 24.1 21.0385 24.1 14.2692C35.4322 23.4348 36 30.7726 36 35Z" stroke="#3FB6A8" stroke-width="3" stroke-linecap="round" stroke-linejoin="round"/>
</svg>
