<svg width="38" height="53" viewBox="0 0 38 53" fill="none" xmlns="http://www.w3.org/2000/svg">
<path d="M12 40.5L17 44.7857M25 40.5L20.807 44.693M17 44.7857L19 46.5L20.807 44.693M17 44.7857V14M20.807 44.693V28M20.807 23.5C20.807 23.5 20.807 23.5 20.807 23M20.807 18.3429C20.807 18.3429 20.807 18.3429 20.807 17.8429M36 35C36 44.1114 28.3874 51.5 19 51.5C9 51.5 2 44 2 35C2 23 13.3333 8 19 2C25 9 36 20.5 36 35Z" stroke="#3FB6A8" stroke-width="3" stroke-linecap="round" stroke-linejoin="round"/>
</svg>
