<svg width="41" height="41" viewBox="0 0 41 41" fill="none" xmlns="http://www.w3.org/2000/svg">
<path d="M11 32.9617C11 30.8653 11 29.9507 11 29.5C11 28.5 10 27.5 9 27.5C8 27.5 5.5 27.5 4 27.5C2.8 27.5 2 28.3451 2 29.5C2 31.8333 2 35.4 2 37C2 38.6 3.33333 39 4 39H9C10.6 39 11 38 11 37C11 35.8356 11 34.5864 11 32.9617ZM11 32.9617H23M28 39.4617V32.9617H23M23 32.9617V37.4617M33 37.4617H39V17.4617H35M10 22.9617V17.4617H14M35 17.4617C35 16.795 35 14.8617 35 12.4617C35 -1.53831 14 -1.43604 14 12.4617C14 14.8617 14 16.795 14 17.4617M35 17.4617H14" stroke="#3FB6A8" stroke-width="3" stroke-linecap="round" stroke-linejoin="round"/>
</svg>
